<?xml version="1.0" encoding="utf-8"?>
<!-- Generator: Adobe Illustrator 26.0.1, SVG Export Plug-In . SVG Version: 6.00 Build 0)  -->
<svg version="1.1" id="Livello_1" xmlns="http://www.w3.org/2000/svg" xmlns:xlink="http://www.w3.org/1999/xlink" x="0px" y="0px"
	 viewBox="0 0 300 67" style="enable-background:new 0 0 300 67;" xml:space="preserve">
<style type="text/css">
	.st0{fill:#FFFFFF;}
</style>
<g>
	<g>
		<g>
			<path class="st0" d="M1.65,50.81l44.99-21.6c0.46-0.22,0.75-0.75,0.75-1.33V1.97c0-1.18-1.13-1.86-1.92-1.15L0.49,41.09
				C0.18,41.36,0,41.78,0,42.24v7.23C0,50.49,0.86,51.18,1.65,50.81z"/>
		</g>
		<g>
			<path class="st0" d="M1.64,66.47h44.14c0.9,0,1.63-0.87,1.63-1.95v-25c0-1.36-1.13-2.3-2.19-1.83L1.08,56.99
				C0.43,57.27,0,58,0,58.82v5.69C0,65.59,0.74,66.47,1.64,66.47z"/>
		</g>
	</g>
</g>
<g>
	<g>
		<path class="st0" d="M70.2,29.19l-7.08-11.35h-3.26v11.35h-4.59V0.78h10.02c3.25,0,5.71,0.79,7.38,2.37
			c1.68,1.58,2.52,3.68,2.52,6.28c0,2.23-0.62,4.05-1.87,5.47c-1.25,1.42-3.05,2.33-5.41,2.74l7.44,11.55H70.2z M59.86,14.59h5.07
			c3.7,0,5.55-1.64,5.55-4.91c0-1.56-0.45-2.77-1.35-3.64c-0.9-0.87-2.3-1.31-4.2-1.31h-5.07V14.59z"/>
		<path class="st0" d="M85.29,4.49v8.61h10.46v3.54H85.29v8.81h11.67v3.74H80.7V0.78h16.26v3.7H85.29z"/>
		<path class="st0" d="M125.42,22.45c-1.17,2.13-2.87,3.79-5.11,4.97c-2.24,1.18-4.92,1.77-8.03,1.77h-9.5V0.78h9.5
			c3.11,0,5.79,0.58,8.03,1.75s3.94,2.81,5.11,4.93c1.17,2.12,1.75,4.61,1.75,7.48C127.17,17.82,126.59,20.32,125.42,22.45z
			 M119.77,22.39c1.82-1.77,2.74-4.25,2.74-7.44c0-3.19-0.91-5.67-2.74-7.44c-1.82-1.77-4.44-2.66-7.85-2.66h-4.55v20.2h4.55
			C115.33,25.05,117.95,24.16,119.77,22.39z"/>
		<path class="st0" d="M155.74,0.78v28.41h-4.63V16.44h-13.36v12.76h-4.59V0.78h4.59v11.91h13.36V0.78H155.74z"/>
		<path class="st0" d="M168.86,0.78v28.41h-4.59V0.78H168.86z"/>
		<path class="st0" d="M181.98,25.61h9.82v3.58h-14.41V0.78h4.59V25.61z"/>
		<path class="st0" d="M202.94,25.61h9.82v3.58h-14.41V0.78h4.59V25.61z"/>
		<path class="st0" d="M72.55,60.09h-12.2l-2.21,6.14h-4.99l10.64-27.89h5.36l10.6,27.89h-4.99L72.55,60.09z M71.24,56.56
			l-4.79-13.24l-4.79,13.24H71.24z"/>
		<path class="st0" d="M87.2,41.59v8.59h10.64v3.53H87.2v8.79h11.87v3.73H82.53V37.9h16.53v3.69H87.2z"/>
		<path class="st0" d="M118.1,66.23l-7.2-11.31h-3.32v11.31h-4.67V37.9h10.19c3.3,0,5.8,0.79,7.51,2.37
			c1.7,1.58,2.56,3.67,2.56,6.26c0,2.22-0.63,4.04-1.9,5.46c-1.27,1.42-3.1,2.33-5.5,2.73l7.57,11.52H118.1z M107.58,51.67h5.16
			c3.77,0,5.65-1.63,5.65-4.9c0-1.55-0.46-2.76-1.37-3.63c-0.91-0.87-2.34-1.3-4.28-1.3h-5.16V51.67z"/>
		<path class="st0" d="M147.34,39.39c2.17,1.23,3.87,2.95,5.12,5.16c1.24,2.21,1.86,4.7,1.86,7.48c0,2.78-0.62,5.28-1.86,7.48
			c-1.24,2.21-2.95,3.93-5.12,5.18c-2.17,1.24-4.59,1.87-7.26,1.87c-2.7,0-5.14-0.62-7.31-1.87s-3.88-2.97-5.14-5.18
			c-1.26-2.21-1.88-4.7-1.88-7.48c0-2.78,0.63-5.28,1.88-7.48c1.25-2.21,2.97-3.93,5.14-5.16c2.17-1.23,4.6-1.85,7.31-1.85
			C142.75,37.54,145.17,38.16,147.34,39.39z M135.12,43.04c-1.45,0.83-2.57,2.02-3.38,3.57c-0.81,1.55-1.21,3.36-1.21,5.42
			c0,2.06,0.4,3.87,1.21,5.42c0.8,1.55,1.93,2.74,3.38,3.57c1.45,0.83,3.1,1.24,4.95,1.24c1.83,0,3.46-0.41,4.89-1.24
			c1.43-0.83,2.55-2.02,3.36-3.57c0.8-1.55,1.21-3.36,1.21-5.42c0-2.06-0.4-3.86-1.21-5.42s-1.92-2.74-3.36-3.57
			c-1.43-0.83-3.06-1.24-4.89-1.24C138.22,41.79,136.57,42.21,135.12,43.04z"/>
		<path class="st0" d="M188.57,40.27c2.35,1.77,3.93,4.16,4.75,7.18h-4.95c-0.68-1.71-1.77-3.07-3.25-4.07
			c-1.49-1-3.31-1.5-5.46-1.5c-1.72,0-3.25,0.42-4.6,1.24c-1.35,0.83-2.41,2.01-3.19,3.55c-0.78,1.54-1.17,3.34-1.17,5.4
			c0,2.03,0.39,3.82,1.17,5.36c0.78,1.54,1.84,2.72,3.19,3.55s2.89,1.24,4.6,1.24c2.16,0,3.98-0.5,5.46-1.5
			c1.49-1,2.57-2.35,3.25-4.03h4.95c-0.82,3.02-2.4,5.41-4.75,7.16c-2.35,1.75-5.29,2.63-8.84,2.63c-2.73,0-5.14-0.61-7.24-1.83
			c-2.1-1.22-3.72-2.92-4.87-5.1c-1.15-2.18-1.72-4.67-1.72-7.48c0-2.81,0.57-5.3,1.72-7.48c1.15-2.18,2.77-3.88,4.87-5.12
			c2.1-1.23,4.52-1.85,7.24-1.85C183.28,37.62,186.22,38.5,188.57,40.27z"/>
		<path class="st0" d="M203.59,62.66h9.99v3.57h-14.65V37.9h4.67V62.66z"/>
		<path class="st0" d="M222.62,37.9v16.81c0,2.51,0.57,4.39,1.7,5.62c1.13,1.23,2.72,1.85,4.77,1.85c2.02,0,3.59-0.62,4.73-1.85
			c1.13-1.23,1.7-3.1,1.7-5.62V37.9h4.67v16.81c0,3.88-1.02,6.81-3.07,8.81c-2.05,1.99-4.75,2.99-8.1,2.99c-3.33,0-6-1-8.02-2.99
			s-3.03-4.93-3.03-8.81V37.9H222.62z"/>
		<path class="st0" d="M265.86,54.07c1.08,1.28,1.62,2.78,1.62,4.49c0,2.35-0.81,4.22-2.42,5.6c-1.61,1.38-3.94,2.07-7,2.07h-11.5
			V37.9h11.29c2.89,0,5.11,0.64,6.65,1.91c1.54,1.27,2.31,3.02,2.31,5.24c0,1.79-0.48,3.24-1.43,4.35
			c-0.96,1.11-2.21,1.85-3.76,2.23C263.37,51.97,264.78,52.79,265.86,54.07z M251.23,50.1H257c1.64,0,2.89-0.37,3.75-1.12
			s1.29-1.79,1.29-3.13c0-1.31-0.43-2.34-1.29-3.09c-0.86-0.75-2.16-1.12-3.91-1.12h-5.61V50.1z M261.23,61.27
			c0.97-0.79,1.45-1.89,1.45-3.31c0-1.42-0.49-2.53-1.47-3.33s-2.36-1.2-4.13-1.2h-5.85v9.03h5.89
			C258.89,62.46,260.27,62.06,261.23,61.27z"/>
	</g>
</g>
</svg>
