<?xml version="1.0" encoding="utf-8"?>
<!-- Generator: Adobe Illustrator 26.0.1, SVG Export Plug-In . SVG Version: 6.00 Build 0)  -->
<svg version="1.1" id="Livello_1" xmlns="http://www.w3.org/2000/svg" xmlns:xlink="http://www.w3.org/1999/xlink" x="0px" y="0px"
	 viewBox="0 0 300 67" style="enable-background:new 0 0 300 67;" xml:space="preserve">
<style type="text/css">
	.st0{fill:url(#SVGID_1_);}
	.st1{fill:url(#SVGID_00000049191139865927422340000000497462829422081674_);}
	.st2{fill:#2F95D2;}
	.st3{fill:#BF335F;}
</style>
<g>
	<linearGradient id="SVGID_1_" gradientUnits="userSpaceOnUse" x1="0" y1="25.7278" x2="47.4432" y2="25.7278">
		<stop  offset="0" style="stop-color:#60BFED"/>
		<stop  offset="1" style="stop-color:#2F95D2"/>
	</linearGradient>
	<path class="st0" d="M1.65,50.84l45.04-21.62c0.46-0.22,0.76-0.75,0.76-1.34V1.96c0-1.19-1.13-1.86-1.92-1.15L0.48,41.11
		C0.18,41.38,0,41.81,0,42.26v7.24C0,50.52,0.86,51.21,1.65,50.84z"/>
	
		<linearGradient id="SVGID_00000083082242815848679500000004966195448268490661_" gradientUnits="userSpaceOnUse" x1="0" y1="52.048" x2="47.4432" y2="52.048">
		<stop  offset="0" style="stop-color:#EA6996"/>
		<stop  offset="1" style="stop-color:#BF335F"/>
	</linearGradient>
	<path style="fill:url(#SVGID_00000083082242815848679500000004966195448268490661_);" d="M1.63,66.51h44.18
		c0.9,0,1.63-0.87,1.63-1.95V39.54c0-1.36-1.13-2.3-2.19-1.83L1.07,57.02C0.43,57.31,0,58.04,0,58.86v5.7
		C0,65.64,0.73,66.51,1.63,66.51z"/>
</g>
<g>
	<path class="st2" d="M70.26,29.2l-7.09-11.36h-3.26V29.2h-4.59V0.77h10.03c3.25,0,5.71,0.79,7.39,2.38
		c1.68,1.58,2.52,3.68,2.52,6.28c0,2.23-0.62,4.05-1.87,5.48c-1.25,1.42-3.05,2.34-5.42,2.74l7.45,11.56H70.26z M59.91,14.58h5.07
		c3.71,0,5.56-1.64,5.56-4.91c0-1.56-0.45-2.77-1.35-3.65c-0.9-0.87-2.3-1.31-4.21-1.31h-5.07V14.58z"/>
	<path class="st2" d="M85.36,4.47v8.62h10.47v3.54H85.36v8.82h11.68v3.75H80.77V0.77h16.27v3.71H85.36z"/>
	<path class="st2" d="M125.54,22.45c-1.17,2.13-2.87,3.79-5.12,4.97c-2.24,1.18-4.92,1.77-8.03,1.77h-9.51V0.77h9.51
		c3.11,0,5.79,0.58,8.03,1.75c2.24,1.17,3.95,2.81,5.12,4.93s1.75,4.62,1.75,7.49S126.71,20.32,125.54,22.45z M119.88,22.39
		c1.83-1.77,2.74-4.26,2.74-7.45s-0.91-5.68-2.74-7.45c-1.83-1.77-4.44-2.66-7.85-2.66h-4.55v20.22h4.55
		C115.44,25.05,118.05,24.17,119.88,22.39z"/>
	<path class="st2" d="M155.89,0.77V29.2h-4.63V16.43h-13.37V29.2h-4.59V0.77h4.59v11.92h13.37V0.77H155.89z"/>
	<path class="st2" d="M169.01,0.77V29.2h-4.59V0.77H169.01z"/>
	<path class="st2" d="M182.14,25.62h9.83v3.58h-14.42V0.77h4.59V25.62z"/>
	<path class="st2" d="M203.13,25.62h9.83v3.58h-14.42V0.77h4.59V25.62z"/>
	<path class="st3" d="M72.61,60.13H60.4l-2.21,6.14h-5l10.65-27.91h5.37l10.61,27.91h-5L72.61,60.13z M71.3,56.59l-4.79-13.25
		l-4.79,13.25H71.3z"/>
	<path class="st3" d="M87.28,41.61v8.59h10.65v3.53H87.28v8.79h11.88v3.74H82.61V37.92h16.55v3.69H87.28z"/>
	<path class="st3" d="M118.2,66.27l-7.21-11.33h-3.32v11.33h-4.67V37.92h10.2c3.3,0,5.81,0.79,7.52,2.37
		c1.71,1.58,2.56,3.67,2.56,6.27c0,2.22-0.64,4.04-1.9,5.46c-1.27,1.42-3.11,2.33-5.51,2.73l7.58,11.53H118.2z M107.68,51.69h5.16
		c3.77,0,5.65-1.63,5.65-4.9c0-1.55-0.46-2.76-1.37-3.63c-0.92-0.87-2.34-1.31-4.28-1.31h-5.16V51.69z"/>
	<path class="st3" d="M147.47,39.4c2.17,1.23,3.88,2.95,5.12,5.16c1.24,2.21,1.86,4.71,1.86,7.49c0,2.79-0.62,5.28-1.86,7.49
		c-1.24,2.21-2.95,3.94-5.12,5.18c-2.17,1.25-4.6,1.87-7.27,1.87c-2.7,0-5.14-0.62-7.31-1.87c-2.17-1.25-3.89-2.97-5.14-5.18
		c-1.26-2.21-1.88-4.71-1.88-7.49c0-2.78,0.63-5.28,1.88-7.49c1.26-2.21,2.97-3.93,5.14-5.16c2.17-1.23,4.61-1.85,7.31-1.85
		C142.88,37.56,145.3,38.17,147.47,39.4z M135.25,43.06c-1.45,0.83-2.57,2.02-3.38,3.57c-0.81,1.55-1.21,3.36-1.21,5.42
		s0.4,3.87,1.21,5.42c0.81,1.55,1.93,2.74,3.38,3.57c1.45,0.83,3.1,1.25,4.96,1.25c1.83,0,3.46-0.42,4.9-1.25
		c1.43-0.83,2.55-2.02,3.36-3.57c0.81-1.55,1.21-3.36,1.21-5.42s-0.4-3.87-1.21-5.42c-0.81-1.55-1.93-2.74-3.36-3.57
		c-1.43-0.83-3.07-1.25-4.9-1.25C138.34,41.81,136.69,42.23,135.25,43.06z"/>
	<path class="st3" d="M188.74,40.29c2.35,1.77,3.93,4.16,4.75,7.19h-4.96c-0.68-1.71-1.77-3.07-3.26-4.08
		c-1.49-1-3.31-1.51-5.47-1.51c-1.72,0-3.26,0.42-4.61,1.25c-1.35,0.83-2.42,2.01-3.2,3.55c-0.78,1.54-1.17,3.34-1.17,5.4
		c0,2.04,0.39,3.82,1.17,5.36c0.78,1.54,1.84,2.72,3.2,3.55s2.89,1.25,4.61,1.25c2.16,0,3.98-0.5,5.47-1.51
		c1.49-1,2.57-2.35,3.26-4.04h4.96c-0.82,3.03-2.4,5.42-4.75,7.17c-2.35,1.75-5.3,2.63-8.85,2.63c-2.73,0-5.15-0.61-7.25-1.83
		c-2.1-1.22-3.73-2.92-4.88-5.1c-1.15-2.18-1.72-4.68-1.72-7.49s0.57-5.31,1.72-7.49c1.15-2.18,2.77-3.89,4.88-5.12
		c2.1-1.23,4.52-1.85,7.25-1.85C183.45,37.64,186.39,38.52,188.74,40.29z"/>
	<path class="st3" d="M203.78,62.7h10v3.57h-14.67V37.92h4.67V62.7z"/>
	<path class="st3" d="M222.83,37.92v16.83c0,2.52,0.57,4.39,1.7,5.62c1.13,1.23,2.72,1.85,4.77,1.85c2.02,0,3.6-0.62,4.73-1.85
		c1.13-1.23,1.7-3.11,1.7-5.62V37.92h4.67v16.83c0,3.88-1.02,6.82-3.07,8.82c-2.05,2-4.75,2.99-8.11,2.99c-3.33,0-6.01-1-8.03-2.99
		c-2.02-1.99-3.03-4.93-3.03-8.82V37.92H222.83z"/>
	<path class="st3" d="M266.1,54.1c1.08,1.29,1.62,2.79,1.62,4.5c0,2.36-0.81,4.22-2.42,5.6c-1.61,1.38-3.95,2.07-7,2.07h-11.51
		V37.92h11.31c2.89,0,5.11,0.64,6.66,1.91c1.54,1.27,2.31,3.02,2.31,5.24c0,1.79-0.48,3.25-1.43,4.36
		c-0.96,1.11-2.21,1.85-3.77,2.23C263.61,52,265.03,52.82,266.1,54.1z M251.46,50.13h5.78c1.64,0,2.89-0.38,3.75-1.12
		c0.86-0.75,1.29-1.79,1.29-3.13c0-1.31-0.43-2.34-1.29-3.09c-0.86-0.75-2.17-1.12-3.91-1.12h-5.61V50.13z M261.48,61.31
		c0.97-0.79,1.45-1.89,1.45-3.31c0-1.42-0.49-2.53-1.47-3.33c-0.98-0.8-2.36-1.21-4.14-1.21h-5.86v9.04h5.9
		C259.13,62.5,260.51,62.1,261.48,61.31z"/>
</g>
</svg>
