<?xml version="1.0" encoding="utf-8"?>
<!-- Generator: Adobe Illustrator 26.0.1, SVG Export Plug-In . SVG Version: 6.00 Build 0)  -->
<svg version="1.1" id="Layer_1" xmlns="http://www.w3.org/2000/svg" xmlns:xlink="http://www.w3.org/1999/xlink" x="0px" y="0px"
	 viewBox="0 0 211.7 60.32" style="enable-background:new 0 0 211.7 60.32;" xml:space="preserve">
<style type="text/css">
	.st0{fill:#FFFFFF;}
	.st1{clip-path:url(#SVGID_00000063630059184992107940000013615583276134840227_);fill:#61C1EE;}
	.st2{clip-path:url(#SVGID_00000063630059184992107940000013615583276134840227_);fill:#61C0EE;}
	.st3{clip-path:url(#SVGID_00000063630059184992107940000013615583276134840227_);fill:#60BFED;}
	.st4{clip-path:url(#SVGID_00000063630059184992107940000013615583276134840227_);fill:#5FBEED;}
	.st5{clip-path:url(#SVGID_00000063630059184992107940000013615583276134840227_);fill:#5EBEEC;}
	.st6{clip-path:url(#SVGID_00000063630059184992107940000013615583276134840227_);fill:#5DBDEC;}
	.st7{clip-path:url(#SVGID_00000063630059184992107940000013615583276134840227_);fill:#5CBCEC;}
	.st8{clip-path:url(#SVGID_00000063630059184992107940000013615583276134840227_);fill:#5CBBEB;}
	.st9{clip-path:url(#SVGID_00000063630059184992107940000013615583276134840227_);fill:#5BBBEB;}
	.st10{clip-path:url(#SVGID_00000063630059184992107940000013615583276134840227_);fill:#5ABAEA;}
	.st11{clip-path:url(#SVGID_00000063630059184992107940000013615583276134840227_);fill:#59B9EA;}
	.st12{clip-path:url(#SVGID_00000063630059184992107940000013615583276134840227_);fill:#58B8E9;}
	.st13{clip-path:url(#SVGID_00000063630059184992107940000013615583276134840227_);fill:#57B7E8;}
	.st14{clip-path:url(#SVGID_00000063630059184992107940000013615583276134840227_);fill:#56B6E8;}
	.st15{clip-path:url(#SVGID_00000063630059184992107940000013615583276134840227_);fill:#55B5E7;}
	.st16{clip-path:url(#SVGID_00000063630059184992107940000013615583276134840227_);fill:#54B5E7;}
	.st17{clip-path:url(#SVGID_00000063630059184992107940000013615583276134840227_);fill:#54B4E7;}
	.st18{clip-path:url(#SVGID_00000063630059184992107940000013615583276134840227_);fill:#53B3E6;}
	.st19{clip-path:url(#SVGID_00000063630059184992107940000013615583276134840227_);fill:#52B3E6;}
	.st20{clip-path:url(#SVGID_00000063630059184992107940000013615583276134840227_);fill:#51B2E5;}
	.st21{clip-path:url(#SVGID_00000063630059184992107940000013615583276134840227_);fill:#50B1E5;}
	.st22{clip-path:url(#SVGID_00000063630059184992107940000013615583276134840227_);fill:#4FB0E4;}
	.st23{clip-path:url(#SVGID_00000063630059184992107940000013615583276134840227_);fill:#4EAFE3;}
	.st24{clip-path:url(#SVGID_00000063630059184992107940000013615583276134840227_);fill:#4DAEE3;}
	.st25{clip-path:url(#SVGID_00000063630059184992107940000013615583276134840227_);fill:#4CADE2;}
	.st26{clip-path:url(#SVGID_00000063630059184992107940000013615583276134840227_);fill:#4BADE2;}
	.st27{clip-path:url(#SVGID_00000063630059184992107940000013615583276134840227_);fill:#4BACE2;}
	.st28{clip-path:url(#SVGID_00000063630059184992107940000013615583276134840227_);fill:#4AABE1;}
	.st29{clip-path:url(#SVGID_00000063630059184992107940000013615583276134840227_);fill:#49ABE1;}
	.st30{clip-path:url(#SVGID_00000063630059184992107940000013615583276134840227_);fill:#48AAE0;}
	.st31{clip-path:url(#SVGID_00000063630059184992107940000013615583276134840227_);fill:#47A9E0;}
	.st32{clip-path:url(#SVGID_00000063630059184992107940000013615583276134840227_);fill:#46A8DF;}
	.st33{clip-path:url(#SVGID_00000063630059184992107940000013615583276134840227_);fill:#45A7DE;}
	.st34{clip-path:url(#SVGID_00000063630059184992107940000013615583276134840227_);fill:#44A6DE;}
	.st35{clip-path:url(#SVGID_00000063630059184992107940000013615583276134840227_);fill:#43A6DD;}
	.st36{clip-path:url(#SVGID_00000063630059184992107940000013615583276134840227_);fill:#42A5DD;}
	.st37{clip-path:url(#SVGID_00000063630059184992107940000013615583276134840227_);fill:#41A4DC;}
	.st38{clip-path:url(#SVGID_00000063630059184992107940000013615583276134840227_);fill:#40A3DC;}
	.st39{clip-path:url(#SVGID_00000063630059184992107940000013615583276134840227_);fill:#3FA3DB;}
	.st40{clip-path:url(#SVGID_00000063630059184992107940000013615583276134840227_);fill:#3FA2DB;}
	.st41{clip-path:url(#SVGID_00000063630059184992107940000013615583276134840227_);fill:#3EA1DB;}
	.st42{clip-path:url(#SVGID_00000063630059184992107940000013615583276134840227_);fill:#3DA0DA;}
	.st43{clip-path:url(#SVGID_00000063630059184992107940000013615583276134840227_);fill:#3CA0DA;}
	.st44{clip-path:url(#SVGID_00000063630059184992107940000013615583276134840227_);fill:#3B9FD9;}
	.st45{clip-path:url(#SVGID_00000063630059184992107940000013615583276134840227_);fill:#3A9ED9;}
	.st46{clip-path:url(#SVGID_00000063630059184992107940000013615583276134840227_);fill:#399ED8;}
	.st47{clip-path:url(#SVGID_00000063630059184992107940000013615583276134840227_);fill:#389DD8;}
	.st48{clip-path:url(#SVGID_00000063630059184992107940000013615583276134840227_);fill:#389CD7;}
	.st49{clip-path:url(#SVGID_00000063630059184992107940000013615583276134840227_);fill:#379BD7;}
	.st50{clip-path:url(#SVGID_00000063630059184992107940000013615583276134840227_);fill:#369BD6;}
	.st51{clip-path:url(#SVGID_00000063630059184992107940000013615583276134840227_);fill:#359AD6;}
	.st52{clip-path:url(#SVGID_00000063630059184992107940000013615583276134840227_);fill:#3499D5;}
	.st53{clip-path:url(#SVGID_00000063630059184992107940000013615583276134840227_);fill:#3398D5;}
	.st54{clip-path:url(#SVGID_00000063630059184992107940000013615583276134840227_);fill:#3298D4;}
	.st55{clip-path:url(#SVGID_00000063630059184992107940000013615583276134840227_);fill:#3297D4;}
	.st56{clip-path:url(#SVGID_00000063630059184992107940000013615583276134840227_);fill:#3196D3;}
	.st57{clip-path:url(#SVGID_00000101094410257852864710000008815425439349279366_);fill:#EB6997;}
	.st58{clip-path:url(#SVGID_00000101094410257852864710000008815425439349279366_);fill:#EA6996;}
	.st59{clip-path:url(#SVGID_00000101094410257852864710000008815425439349279366_);fill:#EA6895;}
	.st60{clip-path:url(#SVGID_00000101094410257852864710000008815425439349279366_);fill:#E96794;}
	.st61{clip-path:url(#SVGID_00000101094410257852864710000008815425439349279366_);fill:#E86693;}
	.st62{clip-path:url(#SVGID_00000101094410257852864710000008815425439349279366_);fill:#E86593;}
	.st63{clip-path:url(#SVGID_00000101094410257852864710000008815425439349279366_);fill:#E76592;}
	.st64{clip-path:url(#SVGID_00000101094410257852864710000008815425439349279366_);fill:#E66491;}
	.st65{clip-path:url(#SVGID_00000101094410257852864710000008815425439349279366_);fill:#E66390;}
	.st66{clip-path:url(#SVGID_00000101094410257852864710000008815425439349279366_);fill:#E5628F;}
	.st67{clip-path:url(#SVGID_00000101094410257852864710000008815425439349279366_);fill:#E5618E;}
	.st68{clip-path:url(#SVGID_00000101094410257852864710000008815425439349279366_);fill:#E4618D;}
	.st69{clip-path:url(#SVGID_00000101094410257852864710000008815425439349279366_);fill:#E3608C;}
	.st70{clip-path:url(#SVGID_00000101094410257852864710000008815425439349279366_);fill:#E35F8B;}
	.st71{clip-path:url(#SVGID_00000101094410257852864710000008815425439349279366_);fill:#E25E8B;}
	.st72{clip-path:url(#SVGID_00000101094410257852864710000008815425439349279366_);fill:#E15D8A;}
	.st73{clip-path:url(#SVGID_00000101094410257852864710000008815425439349279366_);fill:#E15C89;}
	.st74{clip-path:url(#SVGID_00000101094410257852864710000008815425439349279366_);fill:#E05C88;}
	.st75{clip-path:url(#SVGID_00000101094410257852864710000008815425439349279366_);fill:#DF5B87;}
	.st76{clip-path:url(#SVGID_00000101094410257852864710000008815425439349279366_);fill:#DF5A86;}
	.st77{clip-path:url(#SVGID_00000101094410257852864710000008815425439349279366_);fill:#DE5985;}
	.st78{clip-path:url(#SVGID_00000101094410257852864710000008815425439349279366_);fill:#DD5884;}
	.st79{clip-path:url(#SVGID_00000101094410257852864710000008815425439349279366_);fill:#DD5783;}
	.st80{clip-path:url(#SVGID_00000101094410257852864710000008815425439349279366_);fill:#DC5783;}
	.st81{clip-path:url(#SVGID_00000101094410257852864710000008815425439349279366_);fill:#DB5682;}
	.st82{clip-path:url(#SVGID_00000101094410257852864710000008815425439349279366_);fill:#DB5581;}
	.st83{clip-path:url(#SVGID_00000101094410257852864710000008815425439349279366_);fill:#DA5480;}
	.st84{clip-path:url(#SVGID_00000101094410257852864710000008815425439349279366_);fill:#D9537F;}
	.st85{clip-path:url(#SVGID_00000101094410257852864710000008815425439349279366_);fill:#D9527E;}
	.st86{clip-path:url(#SVGID_00000101094410257852864710000008815425439349279366_);fill:#D8527D;}
	.st87{clip-path:url(#SVGID_00000101094410257852864710000008815425439349279366_);fill:#D7517D;}
	.st88{clip-path:url(#SVGID_00000101094410257852864710000008815425439349279366_);fill:#D7507C;}
	.st89{clip-path:url(#SVGID_00000101094410257852864710000008815425439349279366_);fill:#D64F7B;}
	.st90{clip-path:url(#SVGID_00000101094410257852864710000008815425439349279366_);fill:#D64E7A;}
	.st91{clip-path:url(#SVGID_00000101094410257852864710000008815425439349279366_);fill:#D54E79;}
	.st92{clip-path:url(#SVGID_00000101094410257852864710000008815425439349279366_);fill:#D44D78;}
	.st93{clip-path:url(#SVGID_00000101094410257852864710000008815425439349279366_);fill:#D44C78;}
	.st94{clip-path:url(#SVGID_00000101094410257852864710000008815425439349279366_);fill:#D34B77;}
	.st95{clip-path:url(#SVGID_00000101094410257852864710000008815425439349279366_);fill:#D24A76;}
	.st96{clip-path:url(#SVGID_00000101094410257852864710000008815425439349279366_);fill:#D24A75;}
	.st97{clip-path:url(#SVGID_00000101094410257852864710000008815425439349279366_);fill:#D14974;}
	.st98{clip-path:url(#SVGID_00000101094410257852864710000008815425439349279366_);fill:#D14874;}
	.st99{clip-path:url(#SVGID_00000101094410257852864710000008815425439349279366_);fill:#D04773;}
	.st100{clip-path:url(#SVGID_00000101094410257852864710000008815425439349279366_);fill:#CF4672;}
	.st101{clip-path:url(#SVGID_00000101094410257852864710000008815425439349279366_);fill:#CF4671;}
	.st102{clip-path:url(#SVGID_00000101094410257852864710000008815425439349279366_);fill:#CE4570;}
	.st103{clip-path:url(#SVGID_00000101094410257852864710000008815425439349279366_);fill:#CE4470;}
	.st104{clip-path:url(#SVGID_00000101094410257852864710000008815425439349279366_);fill:#CD436F;}
	.st105{clip-path:url(#SVGID_00000101094410257852864710000008815425439349279366_);fill:#CC436E;}
	.st106{clip-path:url(#SVGID_00000101094410257852864710000008815425439349279366_);fill:#CC426D;}
	.st107{clip-path:url(#SVGID_00000101094410257852864710000008815425439349279366_);fill:#CB416D;}
	.st108{clip-path:url(#SVGID_00000101094410257852864710000008815425439349279366_);fill:#CB406C;}
	.st109{clip-path:url(#SVGID_00000101094410257852864710000008815425439349279366_);fill:#CA406B;}
	.st110{clip-path:url(#SVGID_00000101094410257852864710000008815425439349279366_);fill:#C93F6A;}
	.st111{clip-path:url(#SVGID_00000101094410257852864710000008815425439349279366_);fill:#C93E69;}
	.st112{clip-path:url(#SVGID_00000101094410257852864710000008815425439349279366_);fill:#C83D69;}
	.st113{clip-path:url(#SVGID_00000101094410257852864710000008815425439349279366_);fill:#C83D68;}
	.st114{clip-path:url(#SVGID_00000101094410257852864710000008815425439349279366_);fill:#C73C67;}
	.st115{clip-path:url(#SVGID_00000101094410257852864710000008815425439349279366_);fill:#C63B67;}
	.st116{clip-path:url(#SVGID_00000101094410257852864710000008815425439349279366_);fill:#C63B66;}
	.st117{clip-path:url(#SVGID_00000101094410257852864710000008815425439349279366_);fill:#C53A65;}
	.st118{clip-path:url(#SVGID_00000101094410257852864710000008815425439349279366_);fill:#C53964;}
	.st119{clip-path:url(#SVGID_00000101094410257852864710000008815425439349279366_);fill:#C43964;}
	.st120{clip-path:url(#SVGID_00000101094410257852864710000008815425439349279366_);fill:#C33863;}
	.st121{clip-path:url(#SVGID_00000101094410257852864710000008815425439349279366_);fill:#C33762;}
	.st122{clip-path:url(#SVGID_00000101094410257852864710000008815425439349279366_);fill:#C23762;}
	.st123{clip-path:url(#SVGID_00000101094410257852864710000008815425439349279366_);fill:#C23661;}
	.st124{clip-path:url(#SVGID_00000101094410257852864710000008815425439349279366_);fill:#C13560;}
	.st125{clip-path:url(#SVGID_00000101094410257852864710000008815425439349279366_);fill:#C03560;}
	.st126{clip-path:url(#SVGID_00000101094410257852864710000008815425439349279366_);fill:#C0345F;}
	.st127{fill:#3196D3;}
	.st128{fill:#C0345F;}
</style>
<g>
	<g>
		<g>
			<g>
				<g>
					<path class="st0" d="M7.46,43.27l33.96-16.31c0.34-0.17,0.57-0.56,0.57-1.01V6.41c0-0.89-0.85-1.4-1.45-0.87L6.58,35.93
						c-0.23,0.2-0.36,0.53-0.36,0.87v5.46C6.21,43.03,6.86,43.55,7.46,43.27z"/>
				</g>
			</g>
			<g>
				<g>
					<path class="st0" d="M7.45,55.09h33.31c0.68,0,1.23-0.66,1.23-1.47V34.75c0-1.02-0.85-1.73-1.65-1.38L7.02,47.93
						c-0.49,0.21-0.81,0.76-0.81,1.38v4.3C6.21,54.43,6.77,55.09,7.45,55.09z"/>
				</g>
			</g>
		</g>
		<g>
			<path class="st0" d="M59.2,26.95l-5.35-8.56h-2.46v8.56h-3.46V5.51h7.56c2.45,0,4.31,0.6,5.57,1.79c1.26,1.19,1.9,2.77,1.9,4.74
				c0,1.68-0.47,3.06-1.41,4.13c-0.94,1.07-2.3,1.76-4.08,2.07l5.62,8.72H59.2z M51.39,15.93h3.83c2.79,0,4.19-1.23,4.19-3.71
				c0-1.17-0.34-2.09-1.02-2.75c-0.68-0.66-1.74-0.99-3.17-0.99h-3.83V15.93z"/>
			<path class="st0" d="M70.58,8.31v6.5h7.9v2.67h-7.9v6.65h8.81v2.82H67.12V5.51h12.27v2.79H70.58z"/>
			<path class="st0" d="M100.88,21.87c-0.88,1.61-2.17,2.86-3.86,3.75c-1.69,0.89-3.71,1.34-6.06,1.34H83.8V5.51h7.17
				c2.35,0,4.37,0.44,6.06,1.32c1.69,0.88,2.98,2.12,3.86,3.72c0.88,1.6,1.32,3.48,1.32,5.65C102.2,18.37,101.76,20.26,100.88,21.87
				z M96.61,21.82c1.38-1.34,2.07-3.21,2.07-5.62c0-2.41-0.69-4.28-2.07-5.62c-1.38-1.34-3.35-2-5.92-2h-3.43v15.25h3.43
				C93.26,23.83,95.24,23.16,96.61,21.82z"/>
			<path class="st0" d="M123.76,5.51v21.44h-3.49v-9.63h-10.08v9.63h-3.46V5.51h3.46v8.99h10.08V5.51H123.76z"/>
			<path class="st0" d="M133.67,5.51v21.44h-3.46V5.51H133.67z"/>
			<path class="st0" d="M143.57,24.25h7.41v2.7H140.1V5.51h3.46V24.25z"/>
			<path class="st0" d="M159.39,24.25h7.41v2.7h-10.87V5.51h3.46V24.25z"/>
			<path class="st0" d="M60.97,50.27h-9.21l-1.67,4.63h-3.77l8.03-21.05h4.05l8,21.05h-3.77L60.97,50.27z M59.98,47.61l-3.61-9.99
				l-3.61,9.99H59.98z"/>
			<path class="st0" d="M72.03,36.31v6.48h8.03v2.67h-8.03v6.63h8.96v2.82H68.51V33.53h12.48v2.79H72.03z"/>
			<path class="st0" d="M95.35,54.91l-5.44-8.54h-2.5v8.54h-3.52V33.53h7.69c2.49,0,4.38,0.6,5.67,1.79
				c1.29,1.19,1.93,2.77,1.93,4.72c0,1.68-0.48,3.05-1.44,4.12c-0.96,1.07-2.34,1.76-4.15,2.06l5.71,8.69H95.35z M87.41,43.92h3.89
				c2.84,0,4.26-1.23,4.26-3.69c0-1.17-0.34-2.08-1.03-2.74c-0.69-0.66-1.77-0.98-3.23-0.98h-3.89V43.92z"/>
			<path class="st0" d="M117.42,34.65c1.64,0.93,2.92,2.23,3.86,3.89c0.94,1.67,1.41,3.55,1.41,5.65c0,2.1-0.47,3.98-1.41,5.65
				c-0.94,1.67-2.22,2.97-3.86,3.91c-1.64,0.94-3.46,1.41-5.48,1.41c-2.04,0-3.88-0.47-5.51-1.41c-1.64-0.94-2.93-2.24-3.88-3.91
				c-0.95-1.67-1.42-3.55-1.42-5.65c0-2.1,0.47-3.98,1.42-5.65c0.95-1.67,2.24-2.96,3.88-3.89c1.64-0.93,3.47-1.39,5.51-1.39
				C113.96,33.26,115.78,33.72,117.42,34.65z M108.2,37.4c-1.09,0.63-1.94,1.52-2.55,2.7s-0.91,2.53-0.91,4.09s0.3,2.92,0.91,4.09
				c0.61,1.17,1.46,2.07,2.55,2.7c1.09,0.63,2.34,0.94,3.74,0.94c1.38,0,2.61-0.31,3.69-0.94s1.93-1.52,2.53-2.7
				c0.61-1.17,0.91-2.53,0.91-4.09s-0.3-2.92-0.91-4.09s-1.45-2.07-2.53-2.7c-1.08-0.63-2.31-0.94-3.69-0.94
				C110.54,36.47,109.29,36.78,108.2,37.4z"/>
			<path class="st0" d="M148.54,35.31c1.77,1.33,2.97,3.14,3.58,5.42h-3.74c-0.51-1.29-1.33-2.32-2.46-3.07
				c-1.12-0.76-2.5-1.14-4.12-1.14c-1.3,0-2.46,0.31-3.47,0.94c-1.02,0.63-1.82,1.52-2.41,2.68c-0.59,1.16-0.88,2.52-0.88,4.07
				c0,1.53,0.29,2.88,0.88,4.04c0.59,1.16,1.39,2.05,2.41,2.68s2.18,0.94,3.47,0.94c1.63,0,3-0.38,4.12-1.14s1.94-1.77,2.46-3.04
				h3.74c-0.62,2.28-1.81,4.08-3.58,5.41c-1.77,1.32-4,1.98-6.67,1.98c-2.06,0-3.88-0.46-5.47-1.38c-1.59-0.92-2.81-2.2-3.68-3.85
				c-0.87-1.65-1.3-3.53-1.3-5.65c0-2.12,0.43-4,1.3-5.65c0.86-1.65,2.09-2.93,3.68-3.86c1.58-0.93,3.41-1.39,5.47-1.39
				C144.55,33.32,146.77,33.98,148.54,35.31z"/>
			<path class="st0" d="M159.88,52.21h7.54v2.7h-11.06V33.53h3.52V52.21z"/>
			<path class="st0" d="M174.24,33.53v12.69c0,1.9,0.43,3.31,1.28,4.24s2.05,1.39,3.6,1.39c1.52,0,2.71-0.46,3.57-1.39
				c0.85-0.93,1.28-2.34,1.28-4.24V33.53h3.52v12.69c0,2.93-0.77,5.14-2.32,6.65c-1.54,1.5-3.58,2.26-6.12,2.26
				c-2.51,0-4.53-0.75-6.05-2.26s-2.29-3.72-2.29-6.65V33.53H174.24z"/>
			<path class="st0" d="M206.88,45.73c0.81,0.97,1.22,2.1,1.22,3.39c0,1.78-0.61,3.19-1.82,4.22c-1.21,1.04-2.98,1.56-5.28,1.56
				h-8.68V33.53h8.53c2.18,0,3.86,0.48,5.02,1.44c1.16,0.96,1.75,2.28,1.75,3.95c0,1.35-0.36,2.45-1.08,3.29
				c-0.72,0.84-1.67,1.4-2.84,1.68C205,44.15,206.06,44.76,206.88,45.73z M195.83,42.73h4.36c1.24,0,2.18-0.28,2.83-0.85
				c0.65-0.56,0.97-1.35,0.97-2.36c0-0.99-0.32-1.77-0.97-2.33s-1.63-0.85-2.95-0.85h-4.23V42.73z M203.39,51.17
				c0.73-0.59,1.1-1.43,1.1-2.5c0-1.07-0.37-1.91-1.11-2.51c-0.74-0.61-1.78-0.91-3.12-0.91h-4.42v6.81h4.45
				C201.62,52.06,202.66,51.76,203.39,51.17z"/>
		</g>
	</g>
</g>
</svg>
